{"title":"T-Pain feat. Chris Brown - Best Love Song 1080p Anky","uid":6609202,"size":163179426,"categoryP":"video","categoryS":"music_videos","magnet":"?xt=urn:btih:458c47f008641c8063f9898574b42d90b8fe65f9&amp;dn=T-Pain+feat.+Chris+Brown+-+Best+Love+Song+1080p+Anky&amp;tr=udp%3A%2F%2Ftracker.openbittorrent.com%3A80&amp;tr=udp%3A%2F%2Fopen.demonii.com%3A1337&amp;tr=udp%3A%2F%2Ftracker.coppersurfer.tk%3A6969&amp;tr=udp%3A%2F%2Fexodus.desync.com%3A6969","seeders":2,"leechers":0,"uploader":"ankygautam","files":2,"time":1313522483,"description":"[img]http://thehypefactor.com/wp-content/uploads/2011/02/T-Pain-Best_Love_Song-feat-Chris_Brown.jpg[/img]\n\nGeneral\n\n\nComplete name                    : T-Pain feat. Chris Brown - Best Love Song 1080p Anky.mp4\nFormat                           : MPEG-4\nFormat profile                   : Base Media / Version 2\nCodec ID                         : mp42\nFile size                        : 156 MiB\nDuration                         : 3mn 49s\nOverall bit rate                 : 5 691 Kbps\nVideo\nID                               : 1\nFormat                           : AVC\nFormat/Info                      : Advanced Video Codec\nFormat profile                   : &lt;a class=&quot;__cf_email__&quot; href=&quot;/cdn-cgi/l/email-protection&quot; data-cfemail=&quot;236b4a444b636f170d13&quot;&gt;[email&amp;#160;protected]&lt;/a&gt;&lt;script cf-hash='f9e31' type=&quot;text/javascript&quot;&gt;\n/* &lt;![CDATA[ */!function(){try{var t=&quot;currentScript&quot;in document?document.currentScript:function(){for(var t=document.getElementsByTagName(&quot;script&quot;),e=t.length;e--;)if(t[e].getAttribute(&quot;cf-hash&quot;))return t[e]}();if(t&amp;&amp;t.previousSibling){var e,r,n,i,c=t.previousSibling,a=c.getAttribute(&quot;data-cfemail&quot;);if(a){for(e=&quot;&quot;,r=parseInt(a.substr(0,2),16),n=2;a.length-n;n+=2)i=parseInt(a.substr(n,2),16)^r,e+=String.fromCharCode(i);e=document.createTextNode(e),c.parentNode.replaceChild(e,c)}}}catch(u){}}();/* ]]&gt; */&lt;/script&gt;\nFormat settings, CABAC           : Yes\nFormat settings, ReFrames        : 1 frame\nCodec ID                         : avc1\nCodec ID/Info                    : Advanced Video Coding\nDuration                         : 3mn 49s\nBit rate mode                    : Variable\nBit rate                         : 5 534 Kbps\nMaximum bit rate                 : 9 159 Kbps\nWidth                            : 1 920 pixels\nHeight                           : 1 080 pixels\nDisplay aspect ratio             : 16:9\nFrame rate mode                  : Variable\nFrame rate                       : 23.976 fps\nMinimum frame rate               : 17.241 fps\nMaximum frame rate               : 24.390 fps\nResolution                       : 24 bits\nColorimetry                      : 4:2:0\nScan type                        : Progressive\nBits/(Pixel*Frame)               : 0.111\nStream size                      : 151 MiB (97%)\n\nAudio\nID                               : 2\nFormat                           : AAC\nFormat/Info                      : Advanced Audio Codec\nFormat version                   : Version 4\nFormat profile                   : LC\nFormat settings, SBR             : No\nCodec ID                         : 40\nDuration                         : 3mn 49s\nBit rate mode                    : Variable\nBit rate                         : 151 Kbps\nMaximum bit rate                 : 193 Kbps\nChannel(s)                       : 2 channels\nChannel positions                : L R\nSampling rate                    : 44.1 KHz\nResolution                       : 16 bits\nStream size                      : 4.12 MiB (3%)\n\nScreenShots\n\n\n[img]http://img.sceper.eu/images/vlcsnanrn.png[/img]\n[img]http://img.sceper.eu/images/vlcsnabtb.jpg[/img]\n[img]http://img.sceper.eu/images/vlcsnagng.jpg[/img]\n\nHope You Like It ..Feel Free\n\nAnkyGautam","torrent":{"xt":"urn:btih:458c47f008641c8063f9898574b42d90b8fe65f9","amp;dn":"T-Pain+feat.+Chris+Brown+-+Best+Love+Song+1080p+Anky","amp;tr":["udp%3A%2F%2Ftracker.openbittorrent.com%3A80","udp%3A%2F%2Fopen.demonii.com%3A1337","udp%3A%2F%2Ftracker.coppersurfer.tk%3A6969","udp%3A%2F%2Fexodus.desync.com%3A6969"],"infoHash":"458c47f008641c8063f9898574b42d90b8fe65f9","infoHashBuffer":{"type":"Buffer","data":[69,140,71,240,8,100,28,128,99,249,137,133,116,180,45,144,184,254,101,249]},"announce":[],"urlList":[]}}